<mxfile host="app.diagrams.net" modified="2024-05-16T02:06:13.532Z" agent="Mozilla/5.0 (Windows NT 10.0; Win64; x64) AppleWebKit/537.36 (KHTML, like Gecko) Chrome/122.0.0.0 Safari/537.36" version="24.4.0" etag="E29sV8Gq667lRxp9P-kF" type="github">
  <diagram name="第 1 页" id="sEntNGsWxs7oB34xq_ht">
    <mxGraphModel>
      <root>
        <mxCell id="0" />
        <mxCell id="1" parent="0" />
      </root>
    </mxGraphModel>
  </diagram>
</mxfile>
